<svg width="1920" height="1080" viewBox="0 0 1920 1080" fill="none" xmlns="http://www.w3.org/2000/svg">
<g clip-path="url(#clip0_129_6039)">
<rect width="1920" height="1080" fill="white"/>
<path d="M-310.998 446.331C-281.003 477.092 -251.219 507.371 -218.966 535.938C-138.781 606.959 -50.4972 665.24 37.5807 725.7C103.35 770.847 167.005 819.154 233.557 863.144C289.223 899.937 348.403 926.389 412.071 946.272C445.172 956.609 478.907 962.925 512.866 969.511C547.447 976.217 583.48 982.573 614.724 999.768C663.863 1026.81 690.182 1077.11 725.153 1118.53" stroke="black" stroke-width="68" stroke-linecap="round"/>
<path d="M-84.1526 297C-65.6667 335.783 -47.225 374.044 -25.8945 411.478C27.1357 504.545 91.9364 588.16 155.84 673.773C203.558 737.701 248.257 803.939 297.09 867.024C337.934 919.789 385.437 963.896 439.306 1003.23C467.311 1023.68 497.213 1040.53 527.24 1057.7C557.817 1075.19 589.881 1092.82 613.92 1119.16C651.727 1160.59 660.439 1216.69 680.202 1267.16" stroke="#FFE600" stroke-width="68" stroke-linecap="round"/>
<path d="M1341.46 1117.19C1372.49 1121.13 1387.92 1125.1 1419.96 1120.38C1451.73 1115.7 1486.51 1103.01 1515.22 1089.29C1558.89 1068.42 1600.09 1039.5 1635.45 1006.47C1651.93 991.074 1667.22 973.382 1680.01 954.79C1731.42 880.078 1772.68 797.412 1815.86 717.832C1841.48 670.614 1864.84 624.754 1881.36 573.757C1887.89 553.596 1895.43 533.975 1895.22 512.567" stroke="#FFE600" stroke-width="68" stroke-linecap="round"/>
<path d="M1242.36 899.385C1269.15 915.545 1281.65 925.417 1312.86 934.065C1343.81 942.64 1380.75 945.106 1412.56 944.18C1460.94 942.771 1510.31 932.992 1556.01 917.094C1577.31 909.683 1598.45 899.689 1617.67 887.864C1694.92 840.344 1766.1 781.443 1837.79 726.141C1880.32 693.328 1920.24 660.841 1955.98 620.888C1970.11 605.094 1984.95 590.205 1993.41 570.539" stroke="#FD206F" stroke-width="68" stroke-linecap="round"/>
<path d="M-270 915.054C-269.339 774.266 -216.616 644.205 -168.099 513.642C-160.837 494.099 -126.303 341.251 -76.0014 381.042C-20.4664 424.972 21.7592 463.422 94.7792 476.751C210.186 497.817 341.893 478.861 452.335 521.381C499.001 539.347 525.873 554.44 577.454 533.248C602.529 522.946 617.391 512.545 638.594 496.357C641.55 494.101 668.349 465.043 678.323 470.818C704.655 486.062 702.68 533.607 733.53 547.437C774.911 565.987 843.927 427.197 860.97 403.744C875.707 383.465 897.857 337.813 926.238 359.888C951.048 379.184 994.199 367.949 1022.46 368.143C1100.39 368.678 1149.14 397.936 1216.72 431.089C1294.8 469.391 1365.57 470.107 1448.13 450.179C1522.08 432.329 1572.26 487.253 1640.58 506.418C1760.68 540.113 1864.63 484.74 1979.56 461.015C2109.55 434.18 2238.02 471.183 2367.04 485.006C2393.41 487.832 2439.48 495.317 2460.43 478.557" stroke="#009087" stroke-width="68" stroke-linecap="round"/>
<path d="M-5.61027 1793.89C-45.9781 1659.01 -33.4171 1519.23 -25.0251 1380.2C-23.769 1359.39 -35.2442 1203.11 24.465 1226.53C90.3864 1252.38 141.979 1276.87 215.716 1268.35C332.255 1254.9 452.733 1198.41 570.771 1206.92C620.646 1210.52 650.749 1217.13 693.923 1181.84C714.91 1164.68 726.1 1150.4 741.67 1128.74C743.84 1125.72 761.015 1090.12 772.238 1092.74C801.869 1099.65 813.825 1145.71 847.366 1149.96C892.356 1155.65 917.962 1002.78 927.436 975.38C935.628 951.689 943.524 901.565 977.104 914.418C1006.46 925.653 1044.47 902.338 1071.56 894.292C1146.26 872.113 1201.42 885.904 1275.73 897.939C1361.58 911.844 1429.49 891.919 1502.66 848.812C1568.21 810.198 1632.22 848.128 1703.15 846.568C1827.86 843.826 1911.18 760.581 2014.22 704.414C2130.76 640.887 2264.44 638.873 2391.89 614.524C2417.95 609.547 2464.19 603.293 2479.35 581.158" stroke="#009087" stroke-width="68" stroke-linecap="round"/>
<path d="M-137.973 1508.82C-170.46 1371.83 -149.825 1233.02 -133.394 1094.7C-130.934 1074 -133.338 917.319 -75.0859 944.156C-10.7726 973.784 39.3153 1001.22 113.421 996.989C230.544 990.306 354.092 940.889 471.439 956.226C521.021 962.706 550.691 971.051 595.836 938.316C617.783 922.403 629.78 908.796 646.579 888.074C648.92 885.185 668.129 850.637 679.181 853.903C708.361 862.523 717.63 909.197 750.868 915.379C795.453 923.67 829.871 772.536 840.916 745.731C850.467 722.554 861.252 672.972 894.031 687.748C922.685 700.664 961.98 679.59 989.497 673.128C1065.36 655.312 1119.63 672.275 1193.11 688.594C1278.01 707.447 1346.96 691.49 1422.51 652.694C1490.19 617.941 1551.88 659.515 1622.79 662.066C1747.45 666.551 1835.45 588.272 1941.57 538.168C2061.59 481.497 2195.17 487.229 2323.81 470.303C2350.11 466.843 2396.64 463.279 2413.06 442.059" stroke="#FD206F" stroke-width="68" stroke-linecap="round"/>
<path d="M-60 514.384C6.55657 528.994 70.9917 551.299 138.453 562.365C286.62 586.669 436.908 578.754 586.276 577.379C679.004 576.526 771.283 578.991 863.881 583.744C949.089 588.118 1034.54 594.699 1119.94 592.068C1156.14 590.952 1189.43 587.442 1223.09 574.605C1254.8 562.509 1286.07 552.6 1319.21 544.902C1408.53 524.16 1499.41 510.257 1588.17 487.129C1671.33 465.46 1752.73 436.941 1832.48 405.039C1882.52 385.023 1933.62 364.798 1975.28 329.803C1990.84 316.735 2007.94 306.695 2025.71 297" stroke="#D27CFA" stroke-width="68" stroke-linecap="round"/>
<path d="M-60 275.384C6.55657 289.994 70.9917 312.299 138.453 323.365C286.62 347.669 436.908 339.754 586.276 338.379C679.004 337.526 771.283 339.991 863.881 344.744C949.089 349.118 1034.54 355.699 1119.94 353.068C1156.14 351.952 1189.43 348.442 1223.09 335.605C1254.8 323.509 1286.07 313.6 1319.21 305.902C1408.53 285.16 1499.41 271.257 1588.17 248.129C1671.33 226.46 1752.73 197.941 1832.48 166.039C1882.52 146.023 1933.62 125.798 1975.28 90.8034C1990.84 77.7354 2007.94 67.6945 2025.71 58" stroke="#FD206F" stroke-width="68" stroke-linecap="round"/>
<path d="M-98.1898 400.975C-35.254 427.096 24.236 460.418 88.6871 483.21C230.244 533.269 379.571 551.989 526.84 576.984C618.264 592.502 708.662 611.206 798.969 632.218C882.07 651.554 965.023 673.105 1049.55 685.58C1085.38 690.868 1118.76 693.283 1154.15 686.585C1187.51 680.274 1220.03 676.035 1254.01 674.305C1345.59 669.644 1437.49 671.989 1528.94 664.881C1614.62 658.221 1699.77 644.507 1783.9 627.174C1836.69 616.299 1890.56 605.405 1937.74 578.308C1955.35 568.189 1973.96 561.322 1993.16 554.914" stroke="#FFE600" stroke-width="68" stroke-linecap="round"/>
<path d="M1708.12 740.273L1789.31 823.57L1732.65 878.791L1651.46 795.494C1639.3 783.016 1630.85 767.471 1627.17 750.425C1625.92 744.652 1624.37 737.218 1625.29 730.65C1625.41 729.775 1625.57 728.915 1625.78 728.082C1630.1 711.191 1656.11 713.978 1668.92 717.48C1671.01 718.052 1673.08 718.707 1675.14 719.439C1687.47 723.837 1699.18 731.099 1708.12 740.273Z" fill="#E64F7C"/>
<path d="M1694.26 745.097C1691.71 757.129 1674.2 763.592 1655.15 759.546C1636.21 755.521 1625.39 742.879 1625.29 730.65C1625.41 729.775 1625.57 728.915 1625.78 728.082C1630.1 711.191 1656.11 713.978 1668.92 717.48C1671.01 718.052 1673.08 718.706 1675.14 719.439C1688.2 725.241 1696.31 735.491 1694.26 745.097Z" fill="#EC91B1"/>
<path d="M1798.94 814.179L1884.13 901.583C1883.55 901.913 1883 902.315 1882.49 902.805L1809.47 973.977C1808.97 974.467 1808.55 975.006 1808.21 975.582L1723.02 888.18L1798.94 814.179Z" fill="#F6AB4F"/>
<path d="M1908.69 918.379L2053.71 1067.17L1969.4 1149.35L1824.37 1000.56L1908.69 918.379Z" fill="#1A1A1A"/>
<path d="M1893.65 902.948L1908.69 918.379L1824.37 1000.56L1809.33 985.129C1806.78 982.513 1806.41 978.579 1808.21 975.582C1808.55 975.006 1808.97 974.467 1809.47 973.977L1882.49 902.805C1883 902.315 1883.55 901.913 1884.13 901.583C1887.17 899.865 1891.1 900.332 1893.65 902.948Z" fill="#D68E48"/>
<path d="M174.239 723.601L155.376 838.379L77.3088 825.549L96.1717 710.772C98.9975 693.578 106.49 677.547 118.029 664.471C121.935 660.041 126.999 654.382 132.831 651.226C133.606 650.802 134.392 650.419 135.189 650.096C151.345 643.546 164.538 666.135 169.321 678.523C170.1 680.543 170.804 682.602 171.437 684.695C175.212 697.225 176.317 710.961 174.239 723.601Z" fill="#E64F7C"/>
<path d="M162.134 715.314C150.934 720.399 135.339 710.138 127.289 692.402C119.291 674.771 123.046 658.562 132.83 651.226C133.605 650.801 134.391 650.418 135.188 650.095C151.344 643.545 164.537 666.135 169.32 678.522C170.098 680.543 170.803 682.601 171.436 684.694C174.514 698.646 171.079 711.258 162.134 715.314Z" fill="#EC91B1"/>
<path d="M168.648 840.558L148.856 960.995C148.243 960.719 147.593 960.516 146.901 960.402L46.2819 943.867C45.5895 943.753 44.9076 943.737 44.2407 943.802L64.0313 823.365L168.648 840.558Z" fill="#F6AB4F"/>
<path d="M149.913 990.729L116.219 1195.76L0.0354066 1176.66L33.728 971.635L149.913 990.729Z" fill="#1A1A1A"/>
<path d="M153.406 969.465L149.912 990.73L33.7268 971.635L37.2234 950.372C37.8155 946.768 40.7649 944.138 44.2428 943.805C44.9098 943.739 45.5916 943.755 46.284 943.869L146.903 960.404C147.595 960.519 148.245 960.722 148.858 960.997C152.045 962.425 153.998 965.861 153.406 969.465Z" fill="#D68E48"/>
<path d="M669.291 870.666L601.165 964.946L537.039 918.61L605.165 824.331C615.37 810.208 629.232 799.208 645.395 792.66C650.868 790.44 657.926 787.638 664.554 787.418C665.436 787.384 666.311 787.393 667.168 787.46C684.549 788.812 686.268 814.916 685.017 828.135C684.811 830.291 684.523 832.447 684.154 834.603C681.938 847.5 676.794 860.284 669.291 870.666Z" fill="#E64F7C"/>
<path d="M662.162 857.847C649.87 857.396 640.497 841.252 641.213 821.788C641.928 802.441 652.525 789.614 664.556 787.417C665.439 787.384 666.313 787.392 667.17 787.459C684.551 788.811 686.27 814.915 685.019 828.134C684.813 830.29 684.525 832.447 684.157 834.602C680.682 848.46 671.977 858.211 662.162 857.847Z" fill="#EC91B1"/>
<path d="M612.071 972.822L540.587 1071.75C540.161 1071.23 539.671 1070.76 539.102 1070.35L456.452 1010.63C455.884 1010.22 455.281 1009.9 454.655 1009.66L526.137 910.728L612.071 972.822Z" fill="#F6AB4F"/>
<path d="M528.256 1098.83L406.563 1267.24L311.129 1198.28L432.82 1029.87L528.256 1098.83Z" fill="#1A1A1A"/>
<path d="M540.876 1081.36L528.256 1098.83L432.82 1029.87L445.443 1012.4C447.582 1009.44 451.395 1008.41 454.656 1009.66C455.282 1009.9 455.885 1010.22 456.454 1010.63L539.103 1070.35C539.672 1070.76 540.162 1071.23 540.588 1071.75C542.803 1074.45 543.016 1078.4 540.876 1081.36Z" fill="#D68E48"/>
<path d="M1099 910.727L1192.71 979.636L1145.84 1043.37L1052.13 974.464C1038.1 964.142 1027.21 950.188 1020.8 933.972C1018.63 928.48 1015.88 921.399 1015.72 914.77C1015.69 913.887 1015.71 913.012 1015.78 912.156C1017.28 894.787 1043.4 893.286 1056.6 894.647C1058.76 894.87 1060.91 895.177 1063.06 895.563C1075.94 897.887 1088.68 903.138 1099 910.727Z" fill="#E64F7C"/>
<path d="M1086.12 917.751C1085.57 930.038 1069.35 939.276 1049.89 938.399C1030.55 937.522 1017.81 926.818 1015.72 914.77C1015.69 913.887 1015.71 913.012 1015.78 912.156C1017.28 894.787 1043.39 893.285 1056.6 894.647C1058.76 894.87 1060.91 895.177 1063.06 895.563C1076.89 899.153 1086.57 907.939 1086.12 917.751Z" fill="#EC91B1"/>
<path d="M1200.67 968.798L1299 1041.1C1298.48 1041.53 1298 1042.01 1297.59 1042.58L1237.18 1124.73C1236.76 1125.29 1236.44 1125.89 1236.2 1126.52L1137.87 1054.21L1200.67 968.798Z" fill="#F6AB4F"/>
<path d="M1325.98 1053.66L1493.37 1176.75L1423.62 1271.61L1256.22 1148.52L1325.98 1053.66Z" fill="#1A1A1A"/>
<path d="M1308.62 1040.9L1325.98 1053.66L1256.22 1148.52L1238.87 1135.75C1235.92 1133.59 1234.92 1129.77 1236.2 1126.52C1236.44 1125.89 1236.77 1125.29 1237.18 1124.73L1297.59 1042.58C1298.01 1042.01 1298.48 1041.53 1299.01 1041.1C1301.73 1038.91 1305.67 1038.73 1308.62 1040.9Z" fill="#D68E48"/>
<path d="M1780 556.727L1873.71 625.636L1826.84 689.374L1733.13 620.464C1719.1 610.142 1708.21 596.188 1701.8 579.972C1699.63 574.48 1696.88 567.399 1696.72 560.77C1696.69 559.887 1696.71 559.012 1696.78 558.156C1698.28 540.787 1724.4 539.286 1737.6 540.647C1739.76 540.87 1741.91 541.177 1744.06 541.563C1756.94 543.887 1769.68 549.138 1780 556.727Z" fill="#E64F7C"/>
<path d="M1767.12 563.751C1766.57 576.038 1750.35 585.276 1730.89 584.399C1711.55 583.522 1698.81 572.818 1696.72 560.77C1696.69 559.887 1696.71 559.012 1696.78 558.156C1698.28 540.787 1724.39 539.285 1737.6 540.647C1739.76 540.87 1741.91 541.177 1744.06 541.563C1757.89 545.153 1767.57 553.939 1767.12 563.751Z" fill="#EC91B1"/>
<path d="M1881.67 614.798L1980 687.104C1979.48 687.526 1979 688.012 1978.59 688.577L1918.18 770.726C1917.76 771.292 1917.44 771.892 1917.2 772.516L1818.87 700.211L1881.67 614.798Z" fill="#F6AB4F"/>
<path d="M1989.62 686.896L2006.98 699.661L1937.22 794.519L1919.87 781.751C1916.92 779.588 1915.92 775.766 1917.2 772.515C1917.44 771.891 1917.77 771.291 1918.18 770.726L1978.59 688.577C1979.01 688.012 1979.48 687.525 1980.01 687.104C1982.73 684.912 1986.67 684.732 1989.62 686.896Z" fill="#D68E48"/>
<path d="M230.701 441.587L137.574 511.281L90.1704 447.94L183.297 378.246C197.247 367.806 213.757 361.438 231.137 360.004C237.023 359.516 244.595 358.944 250.988 360.71C251.84 360.94 252.673 361.209 253.471 361.528C269.659 367.999 263.521 393.429 258.387 405.675C257.548 407.671 256.63 409.644 255.636 411.592C249.677 423.242 240.957 433.912 230.701 441.587Z" fill="#E64F7C"/>
<path d="M227.713 427.225C216.114 423.131 211.978 404.928 218.462 386.561C224.91 368.307 238.848 359.22 250.987 360.709C251.84 360.94 252.672 361.209 253.47 361.528C269.658 367.998 263.52 393.428 258.386 405.674C257.548 407.671 256.63 409.643 255.636 411.591C248.189 423.784 236.973 430.498 227.713 427.225Z" fill="#EC91B1"/>
<path d="M145.635 522.049L47.9179 595.179C47.6664 594.556 47.3388 593.959 46.9186 593.397L-14.1784 511.76C-14.5986 511.198 -15.079 510.713 -15.6054 510.299L82.1111 437.167L145.635 522.049Z" fill="#F6AB4F"/>
<path d="M28.0776 617.352L-138.275 741.847L-208.821 647.58L-42.4704 523.083L28.0776 617.352Z" fill="#1A1A1A"/>
<path d="M45.3288 604.439L28.0761 617.352L-42.4719 523.083L-25.2186 510.174C-22.2943 507.985 -18.3454 508.133 -15.6067 510.302C-15.0802 510.717 -14.5998 511.201 -14.1796 511.763L46.9174 593.4C47.3376 593.962 47.6652 594.559 47.9167 595.183C49.2257 598.42 48.253 602.25 45.3288 604.439Z" fill="#D68E48"/>
</g>
<defs>
<clipPath id="clip0_129_6039">
<rect width="1920" height="1080" fill="white"/>
</clipPath>
</defs>
</svg>
